<?xml version="1.0" encoding="utf-8"?><svg version="1.1" id="Layer_1" xmlns="http://www.w3.org/2000/svg" xmlns:xlink="http://www.w3.org/1999/xlink" x="0px" y="0px" fill="#878787" viewBox="0 0 103.12 122.88" style="enable-background:new 0 0 103.12 122.88" xml:space="preserve"><style type="text/css">.st0{fill-rule:evenodd;clip-rule:evenodd;}</style><g><path class="st0" d="M31.82,12.03c8.94,0,16.17,7.24,16.17,16.17c0,8.94-7.24,16.17-16.17,16.17c-8.94,0-16.17-7.24-16.17-16.17 C15.64,19.27,22.88,12.03,31.82,12.03L31.82,12.03z M70.47,24.86c-1.09,0-1.98-0.89-1.98-2c0-1.1,0.88-2,1.98-2h16.68 c1.09,0,1.98,0.89,1.98,2c0,1.1-0.88,2-1.98,2H70.47L70.47,24.86z M16.82,57.46c-1.09,0-1.98-0.89-1.98-2s0.88-2,1.98-2h30.13 c1.09,0,1.98,0.89,1.98,2s-0.88,2-1.98,2H16.82L16.82,57.46z M54.64,57.46c-1.09,0-1.98-0.89-1.98-2s0.88-2,1.98-2h32.5 c1.09,0,1.98,0.89,1.98,2s-0.88,2-1.98,2H54.64L54.64,57.46z M1.18,122.01C0.49,121.69,0,121,0,120.18V2c0-1.1,0.89-2,2-2H21.4 h79.72c1.1,0,2,0.89,2,2v107.73c0,0.11-0.01,0.21-0.02,0.31c-0.28,3.93-1.56,6.99-3.86,9.18c-2.3,2.18-5.53,3.4-9.72,3.64 c-0.09,0.01-0.17,0.02-0.26,0.02H2.83C2.15,122.88,1.54,122.53,1.18,122.01L1.18,122.01z M99.13,109.68V3.99H21.4H3.99v114.9h85.26 l0.04,0c3.21-0.18,5.61-1.04,7.2-2.55C98.06,114.85,98.93,112.62,99.13,109.68L99.13,109.68z M16.82,90.07 c-1.09,0-1.98-0.89-1.98-2c0-1.1,0.88-2,1.98-2h70.5c1.09,0,1.98,0.89,1.98,2c0,1.1-0.88,2-1.98,2H16.82L16.82,90.07z M17.14,73.77 c-1.09,0-1.98-0.89-1.98-2s0.88-2,1.98-2h70c1.09,0,1.98,0.89,1.98,2s-0.88,2-1.98,2H17.14L17.14,73.77z M57.91,41.16 c-1.09,0-1.98-0.89-1.98-2c0-1.1,0.88-2,1.98-2h29.23c1.09,0,1.98,0.89,1.98,2c0,1.1-0.88,2-1.98,2H57.91L57.91,41.16z M70.47,106.37c-1.09,0-1.98-0.89-1.98-1.99c0-1.1,0.88-2,1.98-2h16.68c1.09,0,1.98,0.89,1.98,2c0,1.1-0.88,1.99-1.98,1.99H70.47 L70.47,106.37z M37.15,21.57c0.36-0.36,0.94-0.36,1.3,0c0.36,0.36,0.36,0.94,0,1.3l-5.33,5.33l5.33,5.33c0.36,0.36,0.36,0.94,0,1.3 c-0.36,0.36-0.94,0.36-1.3,0l-5.33-5.33l-5.33,5.33c-0.36,0.36-0.94,0.36-1.3,0c-0.36-0.36-0.36-0.94,0-1.3l5.33-5.33l-5.33-5.33 c-0.36-0.36-0.36-0.94,0-1.3c0.36-0.36,0.94-0.36,1.3,0l5.33,5.33L37.15,21.57L37.15,21.57z"/></g></svg>